<svg xmlns="http://www.w3.org/2000/svg" width="24" height="24" viewBox="0 0 24 24" fill="none" stroke="currentColor" stroke-width="2" stroke-linecap="round" stroke-linejoin="round" class="lucide lucide-brain-circuit">
  <path d="M12 4.5a2.5 2.5 0 0 0-4.96-.46 2.5 2.5 0 0 0-1.98 3 2.5 2.5 0 0 0-1.32 4.24 3 3 0 0 0 .34 5.58 2.5 2.5 0 0 0 2.96 3.08A2.5 2.5 0 0 0 12 18.5a2.5 2.5 0 0 0 4.96.46 2.5 2.5 0 0 0 1.98-3 2.5 2.5 0 0 0 1.32-4.24 3 3 0 0 0-.34-5.58 2.5 2.5 0 0 0-2.96-3.08A2.5 2.5 0 0 0 12 4.5z"/>
  <path d="m7 16 1-1h1m4 3v-1h1v1m3-3 1-1m-3-3h1m-7 1h-1m-1-3 1 1m6-1h-1m-2-3v1m-8 7 2 2m12-10-2-2m-8 2-2 2"/>
</svg>